<?xml version="1.0" encoding="UTF-8"?>
<svg version="1.1" xmlns="http://www.w3.org/2000/svg" width="48" height="48">
<path d="M0 0 C5.75055057 5.60465922 9.25041179 10.44461353 9.4375 18.6875 C9.36615304 25.08494404 7.32825456 29.62724621 4 35 C4.495 35.61875 4.99 36.2375 5.5 36.875 C7 39 7 39 7 41 C4.13275314 40.42655063 3.1385485 40.1385485 1 38 C-0.92968497 38.20676116 -0.92968497 38.20676116 -3.0625 38.875 C-10.83611588 40.78103082 -17.82723852 40.88585449 -25 37 C-29.95617799 33.72236726 -33.7580962 29.99883888 -35 24 C-35.80790325 16.67837675 -35.7394508 9.9475461 -31 4 C-22.51242034 -4.2482336 -10.22695236 -7.04523385 0 0 Z M-24 2 C-24.33 2.66 -24.66 3.32 -25 4 C-24.34 4 -23.68 4 -23 4 C-22.67 4.99 -22.34 5.98 -22 7 C-21.2575 7.0825 -20.515 7.165 -19.75 7.25 C-16.48778646 8.1396946 -15.19045122 9.48503749 -13 12 C-12.401875 11.195625 -11.80375 10.39125 -11.1875 9.5625 C-9 7 -9 7 -6 6 C-5.67 6.66 -5.34 7.32 -5 8 C-3.68 6.35 -2.36 4.7 -1 3 C-8.10552497 -2.2718411 -16.30212606 -1.90048523 -24 2 Z M-27 5 C-31.38643336 10.07181358 -32.39792325 13.77908607 -32.359375 20.3515625 C-31.7834555 24.59583879 -29.76889561 27.78640297 -27 31 C-26.34 31.33 -25.68 31.66 -25 32 C-22.03 28.04 -19.06 24.08 -16 20 C-17.79138015 16.4172397 -19.71208297 13.4748916 -22.0625 10.25 C-22.77535156 9.26515625 -23.48820312 8.2803125 -24.22265625 7.265625 C-24.80917969 6.51796875 -25.39570313 5.7703125 -26 5 C-26.33 5 -26.66 5 -27 5 Z M0 5 C-1.70358187 7.07184297 -3.3872871 9.15542323 -5.0625 11.25 C-5.54783203 11.83652344 -6.03316406 12.42304688 -6.53320312 13.02734375 C-8.10808681 14.95827864 -8.10808681 14.95827864 -10 18 C-9.51226905 22.14373039 -7.23377892 24.25680003 -4.4375 27.25 C-3.61121094 28.14203125 -2.78492188 29.0340625 -1.93359375 29.953125 C-0.97646484 30.96632813 -0.97646484 30.96632813 0 32 C4.32601307 27.80587757 6.0626572 24.74695025 6.375 18.6875 C6.27775198 13.84941108 4.76645094 9.95784221 2 6 C1.34 5.67 0.68 5.34 0 5 Z M-14 26 C-16.34287418 28.67247634 -16.34287418 28.67247634 -17 32 C-17.598125 31.773125 -18.19625 31.54625 -18.8125 31.3125 C-19.8953125 31.1578125 -19.8953125 31.1578125 -21 31 C-22.77190909 32.35444301 -22.77190909 32.35444301 -24 34 C-18.58752376 36.76381765 -14.08448666 37.85976442 -8 37 C-4.54653852 35.65253476 -4.54653852 35.65253476 -2 34 C-3.32 32.68 -4.64 31.36 -6 30 C-6 30.66 -6 31.32 -6 32 C-6.99 32 -7.98 32 -9 32 C-9.268125 31.38125 -9.53625 30.7625 -9.8125 30.125 C-10.95556848 27.7004767 -10.95556848 27.7004767 -14 26 Z " fill="#89FBFC" transform="translate(37,5)"/>
<path d="M0 0 C5.77810014 5.63150986 9.25133801 10.47126693 9.4375 18.75 C9.36872685 24.92430044 7.52331526 29.01702557 4 34 C3.01 33.67 2.02 33.34 1 33 C3 28 3 28 4.125 25.75 C5.95165576 20.00908189 5.75864839 14.9428426 3 9.5625 C2.62875 8.92441406 2.2575 8.28632813 1.875 7.62890625 C1 6 1 6 1 4 C-7.67464745 0.31984654 -14.35186196 -1.0248042 -23.3125 2.1875 C-27.42890682 4.96368134 -29.44631244 8.33893733 -31 13 C-31.79112286 19.36288814 -31.25289968 24.03107858 -27.5 29.30859375 C-24.16040173 33.07433867 -20.06812149 35.74432321 -14.984375 36.16796875 C-9.91356155 36.21229404 -5.80353103 35.6352446 -1 34 C-1 34.99 -1 35.98 -1 37 C-7.12817456 40.12928062 -12.31652625 41.04270288 -19.10546875 39.53125 C-25.60528409 37.41912432 -30.34584054 33.66799912 -33.9375 27.875 C-36.18709621 21.53395068 -36.1709939 13.80983476 -33.5 7.625 C-30.27413929 2.15357548 -25.36142967 -0.99420588 -19.625 -3.4375 C-12.73169606 -4.50715061 -5.86087967 -4.03749489 0 0 Z " fill="#6BFBFC" transform="translate(37,5)"/>
</svg>
